<?xml version="1.0" standalone="no"?>
<!DOCTYPE svg PUBLIC "-//W3C//DTD SVG 20010904//EN"
 "http://www.w3.org/TR/2001/REC-SVG-20010904/DTD/svg10.dtd">
<svg version="1.0" xmlns="http://www.w3.org/2000/svg"
 width="4167.000000pt" height="4167.000000pt" viewBox="0 0 4167.000000 4167.000000"
 preserveAspectRatio="xMidYMid meet">
<metadata>
Created by potrace 1.14, written by Peter Selinger 2001-2017
</metadata>
<g transform="translate(0.000000,4167.000000) scale(0.100000,-0.100000)"
fill="#000000" stroke="none">
<path d="M35040 37235 c0 -8 4 -15 10 -15 5 0 7 7 4 15 -4 8 -8 15 -10 15 -2
0 -4 -7 -4 -15z"/>
<path d="M35039 37173 c0 -21 -2 -60 -4 -88 -2 -27 -7 -93 -10 -145 -3 -52 -8
-117 -10 -145 -2 -27 -7 -86 -10 -130 -4 -44 -8 -98 -10 -120 -2 -22 -6 -76
-9 -120 -4 -44 -8 -96 -11 -115 -2 -19 -7 -64 -10 -100 -3 -36 -8 -82 -10
-102 -3 -21 -7 -56 -10 -78 -3 -22 -7 -59 -10 -82 -3 -24 -8 -54 -10 -68 -3
-14 -7 -43 -10 -65 -2 -22 -7 -51 -10 -65 -3 -14 -7 -38 -9 -55 -18 -128 -112
-497 -135 -530 -4 -5 -16 -32 -26 -60 -29 -80 -103 -213 -160 -290 -105 -141
-270 -273 -431 -345 -38 -17 -78 -35 -89 -40 -91 -41 -374 -118 -535 -146 -14
-2 -38 -6 -55 -9 -16 -3 -39 -7 -50 -9 -11 -2 -42 -7 -70 -10 -27 -4 -57 -9
-65 -11 -8 -2 -42 -6 -75 -10 -33 -3 -114 -12 -180 -20 -176 -20 -212 -24
-295 -30 -41 -3 -88 -8 -105 -10 -16 -2 -75 -7 -130 -11 -55 -4 -107 -8 -115
-10 -8 -1 -42 -3 -75 -4 -58 -2 -59 -2 -20 -10 22 -4 83 -11 135 -15 190 -14
301 -24 350 -30 19 -3 69 -7 110 -10 41 -4 86 -8 100 -10 14 -2 50 -6 80 -10
30 -3 66 -8 80 -10 14 -2 48 -7 75 -10 53 -6 71 -8 175 -24 122 -19 144 -23
207 -37 35 -8 93 -21 131 -29 218 -49 429 -134 579 -234 168 -112 283 -247
383 -446 49 -98 119 -283 135 -355 2 -8 11 -46 20 -85 9 -38 19 -79 21 -90 2
-11 8 -40 13 -65 9 -39 18 -87 27 -140 1 -8 5 -40 8 -70 4 -30 8 -62 11 -70 2
-8 7 -40 10 -70 3 -30 8 -68 10 -85 5 -40 13 -107 20 -175 3 -30 8 -73 10 -95
2 -22 7 -71 10 -110 3 -38 8 -92 10 -120 3 -27 7 -88 10 -135 3 -47 7 -103 10
-125 6 -55 22 -294 24 -372 1 -41 16 -63 17 -25 1 34 15 268 19 312 4 49 13
165 20 275 3 39 7 90 10 115 3 25 8 72 10 105 3 33 7 78 9 100 3 22 7 71 10
109 3 38 8 80 10 95 6 37 17 120 22 160 4 40 11 84 24 161 5 30 12 71 15 90
11 69 27 147 51 242 84 336 198 562 370 734 111 111 214 177 414 267 29 13
130 46 265 86 30 10 243 56 300 66 35 6 224 34 275 41 19 2 49 6 65 9 17 2 57
7 90 10 33 3 74 8 90 10 17 3 58 7 90 10 33 2 83 7 110 10 28 2 79 7 115 10
36 3 85 8 110 10 25 2 83 7 130 10 142 10 196 24 104 26 -27 1 -58 3 -69 4
-11 1 -63 5 -115 9 -52 3 -106 8 -120 10 -14 3 -64 7 -112 11 -48 3 -98 8
-110 10 -13 2 -52 6 -88 10 -107 9 -310 33 -350 41 -14 2 -45 6 -70 9 -25 3
-52 8 -60 10 -8 2 -35 7 -60 10 -147 20 -469 102 -532 136 -10 5 -22 9 -28 9
-6 0 -54 20 -106 45 -389 182 -597 478 -722 1030 -17 72 -33 150 -37 175 -4
25 -9 54 -11 65 -2 10 -6 37 -9 60 -3 22 -8 51 -10 65 -2 14 -7 45 -10 70 -4
25 -8 56 -10 70 -2 14 -7 52 -10 85 -3 33 -8 74 -10 90 -6 43 -22 228 -40 450
-3 39 -8 93 -10 120 -2 28 -7 97 -10 154 -4 57 -8 117 -10 135 -2 17 -5 62 -6
99 -2 71 -19 106 -20 40z"/>
<path d="M10383 33746 c-150 -37 -284 -160 -325 -301 -9 -30 -12 -746 -12
-2900 -1 -1896 -4 -2860 -11 -2860 -16 1 -72 15 -200 51 -115 32 -564 152
-595 159 -8 1 -35 8 -60 15 -25 7 -52 14 -60 16 -8 2 -130 32 -270 68 -140 36
-266 67 -280 69 -14 3 -43 10 -65 16 -40 11 -283 69 -320 77 -11 2 -31 6 -45
9 -14 3 -34 7 -45 9 -11 2 -40 9 -65 16 -25 7 -56 14 -70 17 -14 2 -62 13
-108 23 -46 11 -96 22 -110 25 -32 6 -26 5 -232 49 -91 19 -225 47 -299 61
-168 33 -145 29 -311 60 -77 14 -150 28 -161 30 -25 5 -430 74 -469 80 -58 9
-117 18 -137 20 -13 2 -42 6 -65 10 -46 7 -53 8 -173 25 -80 11 -95 13 -190
25 -27 3 -63 8 -80 10 -93 12 -209 25 -270 30 -38 3 -85 8 -103 10 -32 5 -65
8 -237 20 -49 4 -106 8 -125 10 -229 23 -896 22 -1095 0 -16 -2 -61 -6 -100
-10 -38 -3 -77 -8 -85 -10 -8 -2 -40 -6 -70 -10 -30 -3 -68 -8 -85 -11 -452
-80 -742 -202 -931 -393 -83 -83 -135 -167 -171 -276 -23 -69 -26 -98 -27
-210 -1 -157 6 -216 43 -343 99 -340 335 -740 690 -1172 40 -48 218 -256 246
-286 259 -286 717 -743 920 -919 32 -27 72 -64 89 -80 40 -39 324 -287 441
-386 22 -19 42 -36 45 -39 52 -55 898 -732 1150 -920 38 -29 100 -76 115 -88
32 -25 371 -276 430 -317 78 -55 78 -55 120 -88 17 -13 62 -46 100 -73 39 -27
75 -52 80 -57 163 -129 1449 -997 1826 -1232 68 -42 573 -361 634 -400 28 -17
115 -71 195 -120 80 -48 161 -98 180 -110 62 -41 201 -125 205 -125 2 0 50
-29 107 -64 l103 -64 1 -7464 c0 -5615 3 -7473 12 -7503 16 -56 77 -154 120
-193 68 -63 159 -105 250 -118 26 -4 1633 -7 3572 -7 2737 0 3538 3 3585 13
179 36 324 181 354 353 0 4 1 2359 1 5235 l0 5227 33 0 c17 0 38 -4 45 -8 7
-5 45 -56 85 -114 40 -58 79 -115 87 -127 8 -11 181 -264 386 -561 204 -297
395 -575 425 -618 30 -44 59 -86 64 -95 6 -9 22 -33 36 -52 14 -19 61 -87 104
-150 44 -63 99 -144 124 -180 24 -36 72 -105 106 -155 34 -49 77 -112 96 -140
20 -27 69 -99 111 -160 84 -124 285 -415 440 -640 57 -82 137 -199 178 -260
42 -60 92 -132 111 -160 19 -27 64 -93 99 -145 35 -52 67 -97 70 -100 3 -3 43
-61 89 -130 47 -69 88 -127 91 -130 4 -3 9 -12 13 -20 6 -13 852 -1245 917
-1335 12 -16 100 -145 196 -285 96 -140 180 -262 187 -270 7 -8 30 -42 51 -75
22 -33 43 -61 48 -63 4 -2 8 -8 8 -13 0 -4 46 -75 103 -156 57 -81 127 -184
157 -228 29 -44 56 -82 59 -85 3 -3 11 -13 16 -22 10 -17 123 -182 276 -403
50 -71 107 -155 127 -185 20 -30 39 -57 42 -60 3 -3 50 -70 104 -150 53 -80
116 -172 140 -205 23 -33 77 -112 121 -175 142 -208 187 -273 285 -415 178
-258 205 -297 220 -320 31 -46 156 -229 190 -276 19 -26 69 -98 110 -160 41
-61 81 -117 88 -124 6 -8 12 -16 12 -18 0 -3 69 -105 154 -228 144 -208 251
-364 418 -607 158 -231 264 -383 275 -398 4 -5 13 -18 18 -27 59 -99 316 -454
348 -482 52 -46 135 -88 206 -105 80 -19 8791 -19 8872 0 123 28 248 119 298
218 49 97 61 215 32 312 -18 59 -89 158 -228 320 -12 14 -103 124 -203 245
-100 121 -264 319 -363 440 -100 120 -217 262 -261 315 -43 52 -95 115 -116
140 -63 75 -193 233 -230 279 -19 24 -40 48 -45 55 -9 9 -205 246 -344 415
-20 24 -48 58 -63 75 -14 17 -62 74 -105 126 -43 52 -82 100 -88 106 -5 6 -23
28 -40 49 -16 21 -42 52 -56 69 -14 17 -149 180 -299 361 -150 182 -282 341
-294 355 -11 14 -50 61 -86 105 -35 44 -74 91 -86 105 -22 24 -56 66 -299 360
-65 80 -121 147 -124 150 -4 3 -33 39 -66 80 -33 41 -63 77 -66 80 -3 3 -39
46 -80 96 -41 50 -98 119 -128 155 -29 35 -60 73 -70 84 -18 23 -165 200 -190
230 -9 11 -190 230 -401 485 -212 256 -392 474 -401 485 -19 22 -259 313 -318
384 -20 25 -60 73 -89 108 -29 35 -50 63 -45 63 4 0 40 -9 78 -20 39 -11 79
-22 90 -24 11 -3 144 -36 295 -75 151 -39 284 -73 295 -76 11 -2 102 -24 202
-49 100 -25 197 -48 214 -51 18 -3 35 -8 39 -10 3 -2 18 -6 33 -9 15 -4 39 -8
54 -12 15 -3 81 -18 147 -34 67 -15 137 -32 156 -36 19 -4 37 -8 40 -9 3 -1
21 -5 40 -9 19 -4 82 -18 140 -31 120 -28 323 -72 360 -79 14 -2 81 -16 150
-30 69 -15 195 -40 280 -57 85 -16 187 -36 225 -44 39 -8 84 -17 100 -20 17
-2 41 -7 55 -10 14 -3 51 -9 82 -15 32 -6 70 -12 85 -15 54 -10 158 -27 178
-30 19 -3 47 -8 105 -19 14 -3 43 -8 65 -11 22 -3 47 -7 55 -10 8 -2 35 -6 60
-9 25 -4 56 -8 70 -11 31 -5 297 -44 342 -50 18 -2 96 -13 173 -24 77 -11 167
-23 200 -26 33 -4 71 -9 85 -11 14 -2 54 -6 90 -9 36 -3 72 -8 80 -10 8 -2 49
-7 90 -10 41 -4 91 -8 110 -11 19 -2 69 -6 110 -10 41 -3 98 -7 125 -9 28 -3
88 -7 135 -10 47 -3 107 -8 133 -11 227 -22 977 -22 1167 0 19 3 72 7 116 11
45 3 93 8 105 10 13 2 47 6 74 10 83 10 119 15 141 20 12 3 39 7 60 10 21 4
47 8 56 11 10 3 30 7 45 10 69 11 246 59 337 91 297 103 530 264 637 438 23
39 48 77 54 85 7 8 26 65 43 125 39 137 46 300 17 430 -9 44 -19 91 -22 105
-6 38 -69 220 -93 276 -74 163 -229 433 -315 549 -11 15 -49 66 -84 113 -64
86 -171 219 -240 298 -20 22 -67 76 -106 120 -91 103 -522 535 -649 649 -55
50 -111 101 -125 114 -14 13 -53 46 -85 75 -90 77 -167 145 -206 180 -155 140
-785 641 -1100 875 -113 84 -216 161 -230 171 -21 16 -128 95 -195 144 -11 8
-58 42 -105 75 -47 32 -96 68 -110 79 -41 32 -377 266 -610 425 -140 96 -654
437 -850 565 -156 101 -478 307 -544 347 -18 11 -129 80 -247 154 -340 213
-743 458 -1137 692 -79 48 -275 163 -507 298 -143 83 -260 155 -260 160 0 5
74 85 165 179 91 93 192 200 225 237 33 37 70 80 83 94 28 32 290 357 315 391
256 354 382 550 547 850 50 91 96 174 102 185 54 96 183 370 254 540 31 72 61
144 68 160 8 17 32 82 56 145 23 63 45 124 50 135 48 111 198 612 245 815 2 8
18 74 35 145 16 72 33 146 36 165 3 19 9 51 14 70 5 19 16 78 25 130 9 52 18
106 21 120 7 36 22 133 35 220 5 41 12 86 14 100 2 14 7 52 10 85 4 33 8 71
10 85 2 14 6 54 10 90 4 36 8 81 10 100 2 20 7 74 10 120 4 47 8 103 10 125
23 253 23 957 0 1280 -2 33 -6 105 -10 160 -3 55 -7 116 -10 135 -2 19 -7 67
-10 105 -4 39 -8 81 -10 95 -2 14 -6 56 -10 93 -3 37 -8 76 -9 85 -4 23 -14
96 -22 157 -3 28 -19 129 -35 225 -16 96 -32 186 -34 200 -3 22 -12 64 -30
150 -2 14 -7 39 -11 55 -5 26 -42 188 -61 265 -3 14 -7 30 -8 35 -2 6 -11 39
-20 75 -9 36 -18 72 -20 80 -27 123 -223 719 -275 835 -5 11 -19 45 -30 75
-12 30 -26 64 -31 75 -167 387 -246 545 -426 855 -46 80 -89 154 -96 165 -21
35 -267 406 -277 418 -6 7 -56 73 -112 147 -89 119 -172 225 -188 240 -3 3
-18 21 -34 40 -111 136 -230 264 -421 455 -244 244 -441 419 -675 601 -114 88
-133 102 -280 210 -136 100 -588 394 -606 394 -3 0 -25 14 -49 30 -24 17 -46
30 -49 30 -3 0 -33 17 -68 37 -153 90 -591 310 -798 401 -124 54 -403 170
-460 191 -19 7 -44 17 -55 22 -29 13 -341 124 -464 165 -200 67 -633 194 -781
230 -8 2 -51 12 -95 24 -44 11 -93 22 -109 25 -16 3 -32 8 -36 10 -4 2 -22 7
-41 10 -19 3 -52 11 -74 17 -22 5 -49 12 -60 14 -26 5 -41 8 -160 34 -55 12
-111 24 -125 26 -14 3 -65 13 -115 24 -49 10 -106 21 -125 24 -19 3 -102 17
-185 32 -82 14 -163 27 -180 29 -16 2 -57 8 -90 14 -33 5 -80 13 -105 16 -25
3 -56 8 -70 10 -33 5 -174 23 -312 40 -24 3 -59 8 -78 10 -19 3 -62 7 -95 11
-33 3 -71 7 -85 9 -25 4 -142 15 -215 20 -22 2 -72 6 -110 10 -39 3 -93 8
-120 10 -203 15 -254 18 -470 30 -49 3 -135 8 -190 12 -55 3 -2827 8 -6160 9
-4859 2 -6070 0 -6112 -10z m9037 -5600 c365 -18 504 -27 645 -41 22 -2 72 -7
110 -10 39 -3 88 -8 110 -10 22 -3 60 -7 85 -10 25 -2 61 -6 80 -9 19 -3 58
-8 85 -11 81 -10 186 -25 245 -35 30 -5 71 -12 90 -15 495 -80 999 -221 1395
-390 551 -236 1001 -570 1311 -974 308 -402 509 -918 569 -1461 4 -30 8 -66
11 -80 24 -146 24 -780 0 -907 -2 -10 -7 -47 -11 -83 -4 -36 -8 -67 -10 -70
-2 -3 -6 -30 -10 -60 -16 -130 -57 -300 -116 -490 -17 -52 -35 -104 -39 -115
-5 -11 -18 -42 -29 -70 -52 -135 -189 -406 -234 -460 -4 -5 -36 -51 -70 -101
-70 -102 -127 -174 -139 -174 -4 0 -69 29 -144 65 -75 36 -138 65 -139 65 -2
0 -50 22 -107 49 -142 67 -193 90 -513 236 -154 70 -307 140 -340 155 -33 15
-94 42 -135 60 -41 18 -117 52 -168 76 -52 24 -96 44 -98 44 -2 0 -37 15 -78
34 -41 19 -107 49 -147 66 -41 18 -107 48 -147 66 -41 19 -80 34 -88 34 -8 0
-14 5 -14 10 0 6 -6 10 -14 10 -12 0 -110 42 -294 126 -29 13 -55 24 -57 24
-2 0 -34 14 -70 30 -125 57 -970 417 -1360 579 -214 90 -403 169 -420 176 -41
18 -662 270 -970 394 l-250 100 0 1433 0 1433 34 69 c60 122 178 214 311 242
54 12 895 12 1130 0z m-11598 -810 c123 -4 246 -9 273 -11 28 -2 97 -6 155
-10 183 -11 304 -21 387 -29 26 -3 74 -8 106 -11 32 -3 77 -7 100 -10 23 -2
66 -7 95 -10 83 -8 144 -15 182 -20 19 -2 60 -7 90 -10 30 -4 66 -8 80 -10 14
-2 43 -6 65 -9 89 -12 131 -17 155 -21 21 -3 105 -15 215 -30 191 -27 315 -48
316 -54 1 -3 2 -1339 3 -2968 1 -2698 0 -2960 -15 -2947 -8 8 -18 14 -21 14
-4 0 -69 38 -145 85 -76 47 -145 89 -153 95 -80 49 -589 369 -665 418 -38 25
-142 93 -230 150 -88 58 -191 125 -230 151 -38 25 -72 48 -75 52 -3 3 -15 11
-28 18 -36 19 -584 398 -800 553 -474 341 -1064 801 -1357 1059 -112 99 -232
204 -241 213 -6 6 -62 58 -125 116 -581 540 -1000 1070 -1167 1475 -29 72 -69
187 -77 225 -1 8 -8 33 -13 55 -23 89 -31 250 -16 350 31 221 155 424 364 597
95 79 258 170 432 242 79 33 350 120 400 130 12 2 41 9 63 15 75 20 330 68
410 76 28 3 57 8 65 10 8 2 47 7 85 11 39 3 81 8 95 10 14 1 66 6 115 9 50 4
104 8 120 10 17 2 116 7 220 11 105 3 191 7 192 8 4 3 375 -2 575 -8z m10228
-2517 c58 -22 116 -44 130 -49 25 -8 384 -146 560 -215 278 -109 564 -224 900
-361 470 -191 493 -201 558 -230 29 -13 55 -24 58 -24 4 0 309 -127 369 -154
17 -8 75 -33 130 -56 55 -23 118 -50 140 -60 22 -10 69 -30 105 -45 36 -15 81
-35 100 -43 19 -9 37 -16 40 -16 3 -1 23 -9 45 -20 61 -28 128 -58 150 -67 11
-4 46 -19 77 -33 32 -14 111 -49 175 -77 142 -62 178 -78 263 -116 36 -17 81
-37 100 -46 207 -92 293 -131 429 -194 51 -23 95 -43 96 -43 2 0 50 -22 108
-50 58 -27 149 -69 203 -94 90 -40 175 -79 388 -180 39 -19 117 -55 174 -82
56 -26 102 -51 102 -55 0 -9 -185 -195 -251 -251 -44 -38 -120 -98 -234 -186
-88 -67 -314 -202 -476 -283 -277 -139 -620 -265 -965 -355 -97 -25 -183 -47
-192 -49 -10 -2 -71 -15 -137 -29 -111 -23 -345 -66 -440 -81 -94 -14 -325
-44 -390 -50 -38 -4 -77 -9 -86 -10 -8 -2 -55 -6 -105 -10 -49 -4 -100 -8
-114 -10 -62 -9 -314 -25 -640 -41 -224 -11 -1076 -12 -1125 -2 -135 28 -256
121 -316 244 l-34 69 -3 1697 c-1 934 -1 1698 0 1698 2 0 50 -18 108 -41z
m11968 -5940 c285 -190 420 -283 660 -453 117 -83 223 -158 236 -166 36 -25
201 -144 206 -150 3 -3 28 -21 55 -40 156 -109 655 -498 915 -714 125 -103
423 -359 456 -391 6 -5 57 -53 114 -105 273 -249 513 -489 775 -774 55 -60
267 -311 326 -386 40 -52 76 -97 79 -100 4 -3 47 -63 97 -135 262 -376 417
-688 493 -996 26 -100 38 -377 19 -425 -6 -16 -12 -36 -14 -44 -13 -62 -32
-115 -65 -178 -42 -76 -137 -204 -180 -237 -13 -11 -32 -28 -42 -37 -47 -47
-319 -207 -363 -214 -5 -1 -30 -11 -55 -22 -94 -43 -379 -123 -530 -148 -14
-3 -47 -9 -75 -14 -27 -5 -72 -12 -100 -15 -27 -3 -61 -7 -75 -10 -30 -5 -127
-15 -190 -20 -206 -16 -301 -19 -630 -19 -329 0 -471 4 -665 19 -27 2 -86 6
-130 10 -44 3 -96 7 -115 10 -19 2 -73 7 -120 11 -47 3 -93 8 -102 9 -9 2 -48
7 -85 10 -37 4 -79 8 -93 10 -14 2 -50 7 -80 10 -30 3 -66 8 -80 10 -14 2 -63
9 -110 15 -47 6 -114 15 -150 20 -36 5 -85 12 -110 16 -25 3 -97 14 -160 24
-63 10 -133 21 -155 25 -22 3 -105 17 -185 31 -317 55 -300 52 -490 89 -74 14
-146 28 -160 31 -14 2 -36 7 -50 10 -14 3 -36 8 -50 10 -20 4 -52 10 -90 19
-3 1 -25 5 -50 10 -25 5 -47 9 -50 10 -3 1 -24 5 -46 9 -50 9 -20 -23 -354
381 -146 176 -275 331 -286 345 -12 14 -101 122 -199 240 -97 118 -184 224
-193 235 -10 11 -60 72 -112 135 -51 63 -96 117 -99 120 -4 3 -58 68 -121 145
-62 77 -128 156 -144 176 -34 39 -50 58 -115 139 -25 30 -49 60 -55 65 -6 6
-40 46 -76 90 -36 44 -154 188 -263 320 -109 132 -214 258 -232 280 -79 96
-159 193 -194 235 -250 298 -273 339 -267 484 6 144 90 273 223 343 46 24 231
79 394 118 58 13 350 103 485 149 660 224 1280 529 1846 908 194 130 470 338
638 481 74 64 137 116 138 116 2 1 92 -58 200 -130z"/>
<path d="M35045 31050 c-3 -5 -1 -10 4 -10 6 0 11 5 11 10 0 6 -2 10 -4 10 -3
0 -8 -4 -11 -10z"/>
</g>
</svg>
